<?xml version="1.0" encoding="UTF-8"?>
<svg id="Layer_1" xmlns="http://www.w3.org/2000/svg" xmlns:xlink="http://www.w3.org/1999/xlink" viewBox="0 0 1224.1 491.72">
  <defs>
    <style>
      .cls-1, .cls-2 {
        fill: none;
      }

      .cls-3 {
        fill: #1d1d1b;
      }

      .cls-2 {
        stroke: #1d1d1b;
        stroke-width: 15px;
      }

      .cls-4 {
        clip-path: url(#clippath);
      }
    </style>
    <clipPath id="clippath">
      <rect class="cls-1" y=".02" width="1224.1" height="491.7"/>
    </clipPath>
  </defs>
  <g class="cls-4">
    <path class="cls-3" d="M1008,209.09c32.16,0,50.48,21.36,52.21,56.27h-107.54c4.15-31.87,22.13-56.27,55.33-56.27M1009.73,371.81c40.46,0,68.46-21.36,76.76-58.99h-27.32c-6.22,23.73-23.51,35.93-49.45,35.93-35.96,0-55.67-27.12-57.74-62.71h138.31c0-57.97-28.7-98.65-82.3-98.65-50.83,0-84.72,41.36-84.72,92.21s31.81,92.21,86.45,92.21M824.42,367.06h31.12l64.32-175.26h-29.04l-37.69,111.19c-5.19,15.26-11.76,36.95-11.76,36.95h-.69s-6.57-21.36-11.76-36.95l-37-111.19h-30.08l62.59,175.26ZM671.7,348.76c-38.04,0-57.75-30.51-57.75-69.16s19.71-69.5,57.75-69.5,57.4,30.85,57.4,69.5-19.36,69.16-57.4,69.16M671.7,371.81c53.6,0,86.1-41.36,86.1-92.21s-32.5-92.21-86.1-92.21-86.45,41.36-86.45,92.21,33.2,92.21,86.45,92.21M527.54,367.06h28.01V124.68h-28.01v242.38ZM342.55,372.15c49.1,0,85.06-31.19,85.06-80.68s-38.38-81.02-80.57-81.02c-22.82,0-40.8,7.12-54.29,19.66h-.69l15.56-69.83h105.81v-25.43h-126.21l-26.28,124.75h28.01c10.03-13.9,27.66-24.07,53.25-24.07,31.12,0,55.67,20.34,55.67,55.26s-21.78,56.27-55.67,56.27-54.29-18.31-58.09-47.12h-28.7c2.07,43.05,38.03,72.21,87.14,72.21M189.13,367.06h29.05v-233.57h-22.48c-4.49,34.24-29.39,44.75-58.44,45.43v18.98h51.87v169.16Z"/>
    <path class="cls-2" d="M612.05,484.22c333.88,0,604.55-106.72,604.55-238.34S945.93,7.5,612.05,7.5,7.5,114.22,7.5,245.88s270.67,238.34,604.55,238.34Z"/>
  </g>
</svg>
